Coordinates
version=1
nRows=4
nColumns=63
inDegrees=yes

Units are S.I. units (second, meters, Newtons, ...)
If the header above contains a line with 'inDegrees', this indicates whether rotational values are in degrees (yes) or radians (no).

endheader
time	pelvis_tilt	pelvis_list	pelvis_rotation	pelvis_tx	pelvis_ty	pelvis_tz	hip_flexion_r	hip_adduction_r	hip_rotation_r	knee_angle_r	knee_angle_r_beta	ankle_angle_r	subtalar_angle_r	mtp_angle_r	hip_flexion_l	hip_adduction_l	hip_rotation_l	knee_angle_l	knee_angle_l_beta	ankle_angle_l	subtalar_angle_l	mtp_angle_l	L5_S1_Flex_Ext	L5_S1_Lat_Bending	L5_S1_axial_rotation	L4_L5_Flex_Ext	L4_L5_Lat_Bending	L4_L5_axial_rotation	L3_L4_Flex_Ext	L3_L4_Lat_Bending	L3_L4_axial_rotation	L2_L3_Flex_Ext	L2_L3_Lat_Bending	L2_L3_axial_rotation	L1_L2_Flex_Ext	L1_L2_Lat_Bending	L1_L2_axial_rotation	L1_T12_Flex_Ext	L1_T12_Lat_Bending	L1_T12_axial_rotation	Abs_r3	Abs_r2	Abs_r1	Abs_t1	Abs_t2	neck_flexion	neck_bending	neck_rotation	arm_flex_r	arm_add_r	arm_rot_r	elbow_flex_r	pro_sup_r	wrist_flex_r	wrist_dev_r	arm_flex_l	arm_add_l	arm_rot_l	elbow_flex_l	pro_sup_l	wrist_flex_l	wrist_dev_l
      2.18644068	     -1.40275029	      1.34699390	     92.88351781	      0.22158534	      0.67265222	      0.91360734	      5.52748819	      0.11457835	      8.01980341	     15.17906374	      0.26492464	     20.90157108	     -9.61919607	      0.00000000	      0.40775788	     -1.38949474	     -8.86992270	      5.12559024	      0.08945843	     24.02893476	      4.18772442	      0.00000000	     -0.12498315	      0.08240198	      5.24948740	     -0.23210621	      0.10959464	      5.57758036	     -0.20533482	      0.20035218	      5.57758036	     -0.14284325	      0.20035218	      4.59330147	     -0.11605936	      0.16803412	      4.26520851	     -0.07141537	      0.12764067	      3.93711555	     -0.89274216	      0.93214772	     29.19607405	      0.00000000	      0.00000000	     11.63420100	     -6.87694300	     -7.46149882	     25.30397277	    -19.97338130	     34.95317744	     91.14305083	     66.15988283	     11.75087515	      7.37217274	     47.14769778	    -20.92405634	     53.81559960	     73.21270851	     86.15881326	      0.85530892	      5.03738915
      2.20338983	     -1.73996775	      0.89867866	     93.11201253	      0.22191237	      0.67216572	      0.91298181	      5.25213113	     -0.45785819	      6.95927721	     14.09673201	      0.24603439	     21.14129305	     -7.85110072	      0.00000000	      0.48667807	     -1.00951947	     -8.45717949	      4.45890616	      0.07782259	     23.57404346	      4.37093609	      0.00000000	     -0.11442961	      0.02688887	      5.19883749	     -0.21250722	      0.03576220	      5.52376483	     -0.18799640	      0.06537760	      5.52376483	     -0.13078160	      0.06537760	      4.54898280	     -0.10625933	      0.05483179	      4.22405546	     -0.06538508	      0.04165086	      3.89912812	     -0.81735923	      0.30417230	     28.91437446	      0.00000000	      0.00000000	     11.73056294	     -6.37662646	     -6.32260505	     21.72258824	    -19.57914559	     31.74808224	     92.07497479	     47.09867485	      5.95906016	      8.91493135	     45.28463140	    -21.40040308	     50.62167910	     73.66599066	     85.71936080	     -3.53797532	      4.72405292
      2.22033898	     -2.28876027	      0.56117124	     93.18790705	      0.22273033	      0.67148261	      0.91278643	      4.92863451	     -1.08611924	      7.23138726	     13.15173512	      0.22954108	     21.31647794	     -7.45192348	      0.00000000	      0.57597185	     -0.45757855	     -8.27584254	      4.11440634	      0.07180994	     23.29822876	      4.57453240	      0.00000000	     -0.14787095	     -0.05957389	      5.11540184	     -0.27461113	     -0.07923327	      5.43511445	     -0.24293718	     -0.14484795	      5.43511445	     -0.16900170	     -0.14484795	      4.47597661	     -0.13731296	     -0.12148307	      4.15626399	     -0.08449346	     -0.09227995	      3.83655138	     -1.05622738	     -0.67391172	     28.45033041	      0.00000000	      0.00000000	     12.24230669	     -6.11222071	     -5.38125672	     18.71232403	    -18.41068567	     27.52336514	     92.79925636	     45.19390039	      5.27379703	      7.73652341	     43.99222279	    -21.48090503	     47.09675318	     73.20652526	     85.43421097	     -5.84054689	      4.35023404
      2.23728814	     -2.35670866	     -0.04822625	     93.36226566	      0.22231033	      0.67038761	      0.91299107	      5.00504357	     -1.51427682	      4.96386275	     12.27753975	      0.21428349	     21.92957875	     -4.20873996	      0.00000000	      0.92295808	     -0.29934686	     -7.44336226	      3.59995339	      0.06283104	     23.02222549	      4.26985135	      0.00000000	     -0.10713860	     -0.09255649	      4.90191360	     -0.19896709	     -0.12310013	      5.20828320	     -0.17601800	     -0.22504184	      5.20828320	     -0.12244870	     -0.22504184	      4.28917440	     -0.09948890	     -0.18874119	      3.98280480	     -0.06121899	     -0.14337000	      3.67643520	     -0.76528029	     -1.04701750	     27.26297287	      0.00000000	      0.00000000	     12.29611271	     -4.94100527	     -4.03261016	     16.75524229	    -18.37330924	     24.91669381	     94.57521324	     40.60103664	      3.28362911	     11.25441150	     42.26932396	    -21.29780236	     43.43505954	     72.55806469	     85.18387043	    -12.07522968	      2.96041142
